# generated from PmQm by Jehee Lee
:FULLY-SPECIFIED
:DEGREES
239
root 146.5066579 20.32249674 -78.42923002 48.92281058 55.20858612 5.247993278
RightUpLeg -54.71295933 -4.410673636 -3.352762781
RightLeg 119.0295207 0 0
RightFoot -39.87951468 16.83782369 -9.559682199
RightToes 1.74622e-010 -3.18055e-015 8.94531e-016
Spine 53.06092452 0.8587622001 1.068370552
Spine1 -16.13876905 0.8114113789 8.825303118
HEad -65.73738679 -5.873353265 9.398594178
LeftShoulder1 0 -2.69403e-036 -1.28585e-037
LeftArm 4.558891535 -52.3397453 -101.7673799
LeftForeArm 21.05389905 -0.5896064248 -0.4959319396
LeftHand -3.601781268 -0.5643673545 44.3896983
RightShoulder -2.48481e-017 0 -8.08114e-019
RightArm 11.94407289 3.021888186 80.82303819
RightForeArm 1.79135623 26.19990748 -26.07873886
RightHand 6.55114854 -18.89328993 -38.87695972
LeftUpLeg -47.13205919 -11.05072688 21.97741451
LeftLeg 111.7071183 -4.643418066 6.900783557
LeftFoot 1.006966829 -26.88095359 3.778678485
LeftToes 4.94765e-010 2.02697e-011 4.00889e-011
240
root 147.3234062 20.21382935 -78.16111448 45.77002878 51.67777412 1.41704215
RightUpLeg -52.57409303 -1.717525067 -3.968289313
RightLeg 117.0869827 0 0
RightFoot -40.51282944 17.30083781 -9.971042166
RightToes 1.74622e-010 -3.18055e-015 8.94531e-016
Spine 52.70580877 1.713955285 1.713576026
Spine1 -16.39849701 2.191259323 4.308829228
HEad -65.26321028 -6.46096958 11.6310781
LeftShoulder1 0 -2.69403e-036 -1.28585e-037
LeftArm 5.475424498 -50.85510328 -104.0148404
LeftForeArm 23.64133882 -0.9361828052 -1.523504511
LeftHand -3.735415077 -0.6602123832 45.23255539
RightShoulder -2.48481e-017 0 -8.08114e-019
RightArm 7.930450323 7.324848007 77.00068754
RightForeArm 1.53073182 28.30140194 -27.95162506
RightHand 6.144475957 -18.44489425 -37.39547293
LeftUpLeg -52.27233244 -8.3761043 23.25988849
LeftLeg 119.0111703 -4.679445955 5.323507858
LeftFoot -1.125446932 -26.33790579 4.362651587
LeftToes 4.94765e-010 2.02697e-011 4.00889e-011
241
root 148.0717189 20.03357766 -77.89897584 42.285649 47.53011796 -2.878979483
RightUpLeg -50.71402197 1.546340272 -4.679140979
RightLeg 115.5673557 0 0
RightFoot -41.24769179 17.20313546 -10.18341368
RightToes 1.74622e-010 -3.18055e-015 8.94531e-016
Spine 52.8951142 2.551174282 2.956396335
Spine1 -17.26115307 3.837182067 -1.451694058
HEad -64.69686976 -6.896649312 13.82727861
LeftShoulder1 0 -2.69403e-036 -1.28585e-037
LeftArm 6.400222807 -49.19135879 -106.4992107
LeftForeArm 26.43482955 -1.223188948 -2.288901955
LeftHand -3.868261384 -0.7199611456 46.25955914
RightShoulder -2.48481e-017 0 -8.08114e-019
RightArm 5.277231345 12.40496825 72.64960896
RightForeArm 0.1762060888 28.4520665 -28.20333712
RightHand 5.788852357 -18.06210108 -35.95759069
LeftUpLeg -57.11970568 -5.239596621 24.55154161
LeftLeg 124.9189932 -3.926009098 3.507666393
LeftFoot -2.668037027 -26.30252546 5.637302334
LeftToes 4.94765e-010 2.02697e-011 4.00889e-011
242
root 148.782426 19.79247116 -77.63120491 38.49135329 43.18413016 -7.01848701
RightUpLeg -48.42927697 5.20426054 -5.512279089
RightLeg 114.3826011 0 0
RightFoot -42.13466085 17.60096063 -9.73205568
RightToes 1.74622e-010 -3.18055e-015 8.94531e-016
Spine 53.82677266 3.172011146 4.971193611
Spine1 -18.06608336 5.5870663 -7.663953029
HEad -64.85613618 -7.472130597 15.22284437
LeftShoulder1 0 -2.69403e-036 -1.28585e-037
LeftArm 6.69490923 -47.03442133 -108.2592769
LeftForeArm 29.36388568 -1.580985133 -3.196365084
LeftHand -4.022712441 -0.7768594186 47.49487386
RightShoulder -2.48481e-017 0 -8.08114e-019
RightArm 4.052870468 18.40170736 67.73609465
RightForeArm -0.8582088483 26.13565613 -26.60671383
RightHand 5.419381693 -17.66166025 -34.35318122
LeftUpLeg -60.707145 -2.081672463 25.69038776
LeftLeg 129.1887556 -2.291549391 1.220250597
LeftFoot -3.781794798 -28.19616119 16.58364501
LeftToes 4.94765e-010 2.02697e-011 4.00889e-011
243
root 149.5432362 19.60382139 -77.24543964 34.83045275 38.73707723 -10.63716191
RightUpLeg -45.67922067 9.348098661 -6.372618246
RightLeg 112.7704109 0 0
RightFoot -42.30742145 18.32659853 -8.986933559
RightToes 1.74622e-010 -3.18055e-015 8.94531e-016
Spine 55.19641396 3.531732347 7.321194055
Spine1 -18.05915379 7.43099004 -14.47373378
HEad -65.48950603 -8.188273378 15.76770677
LeftShoulder1 0 -2.69403e-036 -1.28585e-037
LeftArm 7.621512757 -44.71174633 -109.4222419
LeftForeArm 30.99396579 -2.192585293 -4.007434678
LeftHand -4.156949308 -0.8335254974 48.49552255
RightShoulder -2.48481e-017 0 -8.08114e-019
RightArm 3.748065666 25.05949285 63.00410175
RightForeArm -1.692614165 21.30707081 -23.41666561
RightHand 5.147225021 -17.37063771 -33.06784738
LeftUpLeg -63.35234523 0.9812070964 27.02687925
LeftLeg 131.4185398 -1.49070233 0.5422049937
LeftFoot -4.716732569 -28.97768723 17.88935843
LeftToes 4.94765e-010 2.02697e-011 4.00889e-011
244
root 150.2939247 19.3779 -76.83674327 31.48519097 34.99106946 -13.94985577
RightUpLeg -42.76490048 13.11118757 -6.631147927
RightLeg 111.0700504 0 0
RightFoot -42.01384848 18.86596018 -9.067395472
RightToes 1.74622e-010 -3.18055e-015 8.94531e-016
Spine 56.2133 3.11755 10.2429
Spine1 -17.2834 8.98439 -20.5724
HEad -65.6365 -8.87904 15.7548
LeftShoulder1 0 -2.69403e-036 -1.28585e-037
LeftArm 8.12929 -42.7428 -109.912
LeftForeArm 31.9648 -2.63583 -4.31939
LeftHand -4.28494 -0.884507 49.4454
RightShoulder -2.48481e-017 0 -8.08114e-019
RightArm -6.29002 31.8736 59.0086
RightForeArm 5.52903 16.7913 -16.3837
RightHand 4.91515 -17.1129 -31.941
LeftUpLeg -64.63214674 3.254278082 28.34994032
LeftLeg 132.5048078 -1.328336276 0.8105702646
LeftFoot -0.4137823807 -30.87868058 15.87656238
LeftToes 4.94765e-010 2.02697e-011 4.00889e-011
245
root 151.0695134 19.1312 -76.32715098 29.02773112 32.38576436 -16.09348877
RightUpLeg -39.24878471 15.64887918 -6.730177375
RightLeg 109.0496244 0 0
RightFoot -42.05428056 19.15617001 -9.932713135
RightToes 1.74622e-010 -3.18055e-015 8.94531e-016
Spine 56.4857 2.12577 12.6233
Spine1 -15.7777 9.80204 -24.3402
HEad -65.2279 -9.42217 15.6518
LeftShoulder1 0 -2.69403e-036 -1.28585e-037
LeftArm 8.54067 -41.1352 -109.084
LeftForeArm 31.8472 -3.01639 -4.55597
LeftHand -4.45392 -0.943115 50.7211
RightShoulder -2.48481e-017 0 -8.08114e-019
RightArm -16.4391 38.4715 57.0788
RightForeArm 9.89182 11.5128 -11.5277
RightHand 4.36202 -16.3607 -29.4975
LeftUpLeg -64.8852316 4.014408738 29.66589447
LeftLeg 133.3529506 0 0
LeftFoot 7.014516558 -31.85526997 9.89589025
LeftToes 4.94765e-010 2.02697e-011 4.00889e-011
246
root 151.8976842 18.9143 -75.63183419 27.76883598 30.73541399 -16.757934
RightUpLeg -35.18594636 17.01992918 -7.039390427
RightLeg 106.3219508 0 0
RightFoot -42.36684547 19.04384444 -10.13487706
RightToes 1.74622e-010 -3.18055e-015 8.94531e-016
Spine 56.0214 1.19238 13.6845
Spine1 -13.8517 9.97864 -25.7926
HEad -65.1345 -9.70903 16.1853
LeftShoulder1 0 -2.69403e-036 -1.28585e-037
LeftArm 10.9565 -39.277 -107.066
LeftForeArm 29.1934 -4.04121 -5.07575
LeftHand -4.67812 -1.02501 52.3336
RightShoulder -2.48481e-017 0 -8.08114e-019
RightArm -16.4073 44.3429 58.1984
RightForeArm 4.6884 6.64035 -9.78623
RightHand 3.63401 -15.2846 -25.8901
LeftUpLeg -64.09328553 3.28050227 28.46225828
LeftLeg 132.9012124 0 0
LeftFoot 14.11397983 -32.2762955 6.195872431
LeftToes 4.94765e-010 2.02697e-011 4.00889e-011
247
root 152.7749037 18.7272 -74.74059931 28.31304967 29.5888228 -16.20155873
RightUpLeg -31.61865401 17.27272911 -7.794900009
RightLeg 102.7762294 0 0
RightFoot -41.91105866 18.15195966 -8.754410783
RightToes 1.74622e-010 -3.18055e-015 8.94531e-016
Spine 54.8122 0.735399 13.4486
Spine1 -12.5067 9.6327 -26.4162
HEad -65.488 -9.52609 17.5881
LeftShoulder1 0 -2.69403e-036 -1.28585e-037
LeftArm 12.8718 -36.4481 -104.532
LeftForeArm 26.7938 -5.18931 -5.37677
LeftHand -4.93246 -1.11862 54.0867
RightShoulder -2.48481e-017 0 -8.08114e-019
RightArm -13.6139 47.8937 62.0755
RightForeArm 1.04597 2.77167 -7.55604
RightHand 3.42016 -15.0942 -24.1386
LeftUpLeg -62.61140977 2.109653232 25.64615845
LeftLeg 131.1874371 0 0
LeftFoot 18.3465709 -31.61328995 4.061261827
LeftToes 4.94765e-010 2.02697e-011 4.00889e-011
248
root 153.7006436 18.5695 -73.6668844 31.23262118 29.18319863 -13.99177596
RightUpLeg -28.90586905 15.45539161 -9.565461597
RightLeg 98.47751581 0 0
RightFoot -40.41009366 16.59563361 -6.665042513
RightToes 1.74622e-010 -3.18055e-015 8.94531e-016
Spine 52.8151 0.344858 11.9087
Spine1 -12.4014 8.13238 -26.4083
HEad -65.3044 -8.52654 18.7953
LeftShoulder1 0 -2.69403e-036 -1.28585e-037
LeftArm 9.84683 -32.1741 -101.163
LeftForeArm 28.4699 -5.19283 -5.30217
LeftHand -5.11806 -1.18058 55.3596
RightShoulder -2.48481e-017 0 -8.08114e-019
RightArm -10.4217 48.1865 68.1567
RightForeArm 1.17373 0.216342 -5.1474
RightHand 4.08097 -16.3755 -26.6049
LeftUpLeg -61.21131312 0.5542441381 20.91238836
LeftLeg 128.3810573 0 0
LeftFoot 20.23282402 -28.75883577 4.018984815
LeftToes 4.94765e-010 2.02697e-011 4.00889e-011
249
root 154.6784812 18.4843 -72.42460489 36.10089941 30.14189206 -9.310098412
RightUpLeg -25.88103724 10.93507055 -12.40178438
RightLeg 93.47379258 0 0
RightFoot -38.45816844 15.35026312 -5.036879052
RightToes 1.74622e-010 -3.18055e-015 8.94531e-016
Spine 50.4582 -0.791963 8.90056
Spine1 -12.909 4.84032 -24.0073
HEad -64.2391 -6.44361 18.4894
LeftShoulder1 0 -2.69403e-036 -1.28585e-037
LeftArm 6.80641 -26.148 -96.477
LeftForeArm 29.4963 -5.15426 -5.25305
LeftHand -5.06971 -1.1627 55.0426
RightShoulder -2.48481e-017 0 -8.08114e-019
RightArm -8.46787 46.3875 75.1343
RightForeArm 3.83767 -0.455196 -3.602
RightHand 5.29943 -18.1338 -31.6593
LeftUpLeg -59.92769242 -2.557426231 14.65672022
LeftLeg 125.079945 0 0
LeftFoot 18.46866236 -23.7742312 4.748328827
LeftToes 4.94765e-010 2.02697e-011 4.00889e-011
